<?xml version="1.0" encoding="UTF-8" standalone="no"?>
<svg
   xmlns:dc="http://purl.org/dc/elements/1.1/"
   xmlns:cc="http://creativecommons.org/ns#"
   xmlns:rdf="http://www.w3.org/1999/02/22-rdf-syntax-ns#"
   xmlns:svg="http://www.w3.org/2000/svg"
   xmlns="http://www.w3.org/2000/svg"
   xmlns:sodipodi="http://sodipodi.sourceforge.net/DTD/sodipodi-0.dtd"
   xmlns:inkscape="http://www.inkscape.org/namespaces/inkscape"
   version="1.1"
   viewbox="0 0 1280 1280"
   id="svg4"
   sodipodi:docname="cog.svg"
   inkscape:version="0.92.4 (5da689c313, 2019-01-14)">
  <metadata
     id="metadata10">
    <rdf:RDF>
      <cc:Work
         rdf:about="">
        <dc:format>image/svg+xml</dc:format>
        <dc:type
           rdf:resource="http://purl.org/dc/dcmitype/StillImage" />
      </cc:Work>
    </rdf:RDF>
  </metadata>
  <defs
     id="defs8" />
  <sodipodi:namedview
     pagecolor="#ffffff"
     bordercolor="#666666"
     borderopacity="1"
     objecttolerance="10"
     gridtolerance="10"
     guidetolerance="10"
     inkscape:pageopacity="0"
     inkscape:pageshadow="2"
     inkscape:window-width="1440"
     inkscape:window-height="838"
     id="namedview6"
     showgrid="false"
     inkscape:zoom="3.337544"
     inkscape:cx="22.547733"
     inkscape:cy="84.22483"
     inkscape:window-x="0"
     inkscape:window-y="212"
     inkscape:window-maximized="1"
     inkscape:current-layer="svg4" />
  <path
     d="m 48.066457,3.8569524 c -2.916191,0.1925114 -6.509738,0.7415255 -6.937541,1.0623779 -0.434933,0.3137223 -0.427803,0.2566819 -0.427803,3.7004972 l -0.0071,3.1586135 -0.156861,0.06417 c -0.08556,0.02852 -0.698746,0.221031 -1.36897,0.427803 -1.35471,0.413543 -2.73081,0.912646 -3.957179,1.4474 -0.969688,0.413543 -2.994623,1.41888 -3.600678,1.782513 l -0.427833,0.256682 -2.210317,-2.196056 c -1.212109,-1.212109 -2.281617,-2.238836 -2.367177,-2.281617 -0.213902,-0.10695 -0.691615,-0.09982 -0.969688,0.02139 -0.292332,0.121211 -1.825293,1.219239 -2.937581,2.103365 -2.809241,2.224577 -5.825253,5.240589 -8.02844,8.02844 -1.32619,1.675562 -2.117626,2.830631 -2.203187,3.208524 -0.128341,0.556144 -0.0713,0.627444 2.317267,3.030272 l 2.238838,2.245967 -0.256682,0.427803 c -0.363633,0.613184 -1.36897,2.63812 -1.782514,3.600677 -0.534754,1.226368 -1.033858,2.602469 -1.447401,3.957179 -0.206771,0.663095 -0.399283,1.28341 -0.427803,1.36897 l -0.06417,0.156861 -3.158613,0.0071 c -3.4580757,0 -3.3796451,-0.0071 -3.7147576,0.442063 -0.2424219,0.327983 -0.6987452,3.037402 -0.9554271,5.654132 -0.1711213,1.796774 -0.1711213,5.974985 0,7.771758 0.2566819,2.616729 0.7130052,5.333279 0.9625571,5.661262 0.3279825,0.442063 0.256682,0.434933 3.7076276,0.434933 l 3.158613,0.0071 0.06417,0.156861 c 0.02852,0.08556 0.221032,0.698745 0.427803,1.36897 0.413543,1.35471 0.912647,2.730814 1.447401,3.95718 0.413544,0.969689 1.418881,2.994623 1.782514,3.600677 l 0.256682,0.427804 -2.196057,2.210317 c -1.212109,1.212111 -2.238837,2.281618 -2.281617,2.367175 -0.106951,0.213905 -0.09982,0.691619 0.02139,0.969688 0.121211,0.292332 1.21924,1.825291 2.103366,2.937583 2.224576,2.809241 5.240589,5.82525 8.028439,8.028436 1.675563,1.326191 2.830631,2.117628 3.208524,2.203185 0.556144,0.128342 0.627446,0.0713 3.030274,-2.317266 l 2.245966,-2.238833 0.427803,0.256678 c 0.613185,0.363633 2.63812,1.368969 3.600677,1.782512 1.226369,0.534753 2.602469,1.033859 3.95718,1.447402 0.670224,0.206774 1.283409,0.399287 1.36897,0.427804 l 0.15686,0.06419 0.0071,3.158613 c 0,3.458075 -0.0071,3.379649 0.442064,3.714759 0.327982,0.242422 3.037402,0.698743 5.654132,0.955427 1.796773,0.17112 5.974983,0.17112 7.771757,0 2.616729,-0.256684 5.33328,-0.713005 5.661262,-0.962558 0.442064,-0.327979 0.434933,-0.256684 0.434933,-3.707628 l 0.0071,-3.158613 0.156862,-0.06419 c 0.08556,-0.02854 0.705874,-0.22103 1.368969,-0.427804 1.35471,-0.413543 2.73081,-0.912649 3.95718,-1.447402 0.969687,-0.413543 2.994622,-1.418879 3.600677,-1.782512 l 0.4278,-0.256678 2.21031,2.196055 c 1.219242,1.212111 2.281618,2.238833 2.367181,2.281618 0.213899,0.106949 0.691613,0.09982 0.969689,-0.02142 0.292332,-0.121211 1.825291,-1.219242 2.937576,-2.103367 2.809241,-2.224578 5.825257,-5.240587 8.028442,-8.028436 1.326191,-1.675562 2.117629,-2.830633 2.203192,-3.208521 0.128336,-0.556147 0.0713,-0.627448 -2.317272,-3.030278 L 84.344099,68.9186 84.60079,68.490796 c 0.363627,-0.613185 1.368969,-2.638119 1.782512,-3.600677 0.534754,-1.226366 1.033853,-2.60247 1.447396,-3.95718 0.206774,-0.670225 0.399287,-1.283409 0.427804,-1.36897 l 0.06419,-0.156861 3.158613,-0.0071 c 3.458074,0 3.379648,0.0071 3.714758,-0.442063 0.242422,-0.327982 0.69875,-3.037403 0.955427,-5.654132 0.171121,-1.796773 0.171121,-5.974984 0,-7.771757 -0.256677,-2.61673 -0.713005,-5.33328 -0.962558,-5.661263 -0.327919,-0.44203 -0.256617,-0.4349 -3.707567,-0.4349 l -3.158613,-0.0071 -0.06419,-0.156861 c -0.02854,-0.08556 -0.22103,-0.705875 -0.427804,-1.36897 -0.413543,-1.35471 -0.912642,-2.73081 -1.447396,-3.957179 -0.413543,-0.969687 -1.418885,-2.994622 -1.782512,-3.600677 l -0.256691,-0.427803 2.196062,-2.210316 c 1.21211,-1.219239 2.238839,-2.281618 2.281618,-2.367178 0.106949,-0.213901 0.09982,-0.691616 -0.02142,-0.969687 -0.121209,-0.292363 -1.219233,-1.825325 -2.103365,-2.937613 -2.224571,-2.809241 -5.240586,-5.825254 -8.028441,-8.02844 -1.675563,-1.326189 -2.830627,-2.117625 -3.208522,-2.203186 -0.556146,-0.12834 -0.627442,-0.0713 -3.030271,2.317267 l -2.245964,2.238837 -0.4278,-0.256682 c -0.613162,-0.36361 -2.638097,-1.368947 -3.600655,-1.78249 -1.226368,-0.534754 -2.602469,-1.033857 -3.957178,-1.4474 -0.663095,-0.206772 -1.28341,-0.399283 -1.368971,-0.427803 l -0.156861,-0.06417 -0.0071,-3.1586135 c 0,-3.4580754 0.0071,-3.3796449 -0.442063,-3.7147573 C 59.895215,4.6626484 57.143015,4.1991949 54.640366,3.9639032 53.214356,3.8284322 49.414037,3.7713917 48.066457,3.8569524 Z m 4.705835,24.5345116 c 7.251264,0.655964 13.796653,5.254849 16.990917,11.935709 1.212104,2.531168 1.860938,5.097987 2.017803,7.971399 0.292332,5.269109 -1.383231,10.388486 -4.762874,14.523917 -3.358255,4.121171 -8.163911,6.794938 -13.554231,7.557852 -1.483051,0.206775 -4.07839,0.206775 -5.561441,0 -4.705835,-0.663089 -8.855525,-2.723676 -12.15674,-6.024892 -3.301214,-3.301213 -5.3618,-7.450904 -6.024894,-12.156739 -0.206772,-1.483051 -0.206772,-4.07839 0,-5.561441 0.762915,-5.39032 3.436685,-10.195975 7.557856,-13.55423 4.413502,-3.600677 9.725391,-5.212069 15.493604,-4.691575 z"
     id="path2"
     inkscape:connector-curvature="0"
     style="fill:silver;stroke-width:0.00713005" />
</svg>
