<?xml version="1.0" encoding="utf-8"?>

<svg version="1.1" xmlns="http://www.w3.org/2000/svg" xmlns:xlink="http://www.w3.org/1999/xlink" viewbox="0 0 1280 1280">
  <path d="M2680 12239 c-1043 -106 -1943 -808 -2369 -1847 -131 -319 -211 -644
-257 -1037 -22 -184 -25 -685 -6 -875 81 -804 309 -1555 720 -2377 959 -1916
2771 -3851 5394 -5761 l127 -93 148 109 c1574 1153 2780 2235 3759 3375 1914
2226 2702 4462 2208 6261 -280 1017 -1000 1813 -1914 2115 -279 92 -497 130
-795 138 -1066 29 -2058 -549 -2775 -1617 -207 -308 -402 -684 -562 -1085 -33
-82 -64 -154 -68 -159 -4 -4 -11 3 -15 15 -4 13 -33 89 -65 169 -405 1014
-1007 1785 -1751 2243 -384 236 -815 383 -1258 427 -120 12 -399 11 -521 -1z"
    transform="translate(80, 1200) scale(0.09, -0.09)" fill="red" />
</svg>
